<?xml version="1.0" standalone="no"?><!DOCTYPE svg PUBLIC "-//W3C//DTD SVG 1.1//EN" "http://www.w3.org/Graphics/SVG/1.1/DTD/svg11.dtd"><svg t="1779375401992" class="icon" viewBox="0 0 1024 1024" version="1.1" xmlns="http://www.w3.org/2000/svg" p-id="6417" xmlns:xlink="http://www.w3.org/1999/xlink" width="32" height="32"><path d="M256 128h512c70.4 0 128 57.6 128 128v512c0 70.4-57.6 128-128 128H256c-70.4 0-128-57.6-128-128V256c0-70.4 57.6-128 128-128z m0 64c-38.4 0-64 25.6-64 64v512c0 38.4 25.6 64 64 64h512c38.4 0 64-25.6 64-64V256c0-38.4-25.6-64-64-64H256z" p-id="6418" fill="#1296db"></path></svg>